Coordinates
version=1
nRows=16
nColumns=38
inDegrees=no

Units are S.I. units (second, meters, Newtons, ...)
If the header above contains a line with 'inDegrees', this indicates whether rotational values are in degrees (yes) or radians (no).

endheader
time	pelvis_tilt	pelvis_list	pelvis_rotation	pelvis_tx	pelvis_ty	pelvis_tz	hip_flexion_r	hip_adduction_r	hip_rotation_r	knee_angle_r	ankle_angle_r	subtalar_angle_r	mtp_angle_r	hip_flexion_l	hip_adduction_l	hip_rotation_l	knee_angle_l	ankle_angle_l	subtalar_angle_l	mtp_angle_l	lumbar_extension	lumbar_bending	lumbar_rotation	arm_flex_r	arm_add_r	arm_rot_r	elbow_flex_r	pro_sup_r	wrist_flex_r	wrist_dev_r	arm_flex_l	arm_add_l	arm_rot_l	elbow_flex_l	pro_sup_l	wrist_flex_l	wrist_dev_l
3.73	-1.98434	1.42072	-2.77524	-0.0611048	0.239226	0.940375	-0.322614	-0.216118	0.0491113	0.0834211	0.221256	0	0	0.563026	-0.167855	0.000904437	0.301048	0.077365	0	0	-0.0669164	-0.0301781	0.169725	-0.361767	-0.169082	-0.260821	0.541251	1.43369	0	0	-0.361726	-0.0802875	0.117566	0.360734	0.969948	0	0
3.74	-1.92777	1.42293	-2.84555	-0.0640965	0.249357	0.935674	-0.325517	-0.225896	0.0601507	0.0790581	0.232821	0	0	0.557216	-0.171151	-0.0116131	0.276292	0.0726822	0	0	-0.0523279	-0.0332883	0.17161	-0.368008	-0.169771	-0.261403	0.546883	1.43074	0	0	-0.37101	-0.0789742	0.113854	0.364184	0.976589	0	0
3.75	-1.92386	1.42751	-2.85878	-0.0677353	0.259855	0.932283	-0.332357	-0.22929	0.0615647	0.0816672	0.241588	0	0	0.545394	-0.175522	-0.017541	0.254838	0.0672643	0	0	-0.0456398	-0.0300488	0.168714	-0.372483	-0.171843	-0.264135	0.550195	1.42763	0	0	-0.37722	-0.0753847	0.108952	0.364104	0.981356	0	0
3.76	-1.91762	1.43317	-2.87581	-0.0712662	0.270336	0.92888	-0.336179	-0.232082	0.0639822	0.0874411	0.250727	0	0	0.535365	-0.181617	-0.0244792	0.238766	0.0631343	0	0	-0.0389458	-0.0262016	0.16682	-0.375814	-0.173527	-0.268776	0.552606	1.42629	0	0	-0.382799	-0.0719219	0.104744	0.363963	0.985858	0	0
3.77	-1.88058	1.43376	-2.92509	-0.0757368	0.280774	0.925342	-0.337323	-0.242554	0.0476031	0.0910306	0.259936	0	0	0.527355	-0.180329	-0.0321997	0.225475	0.0587673	0	0	-0.0297712	-0.027563	0.166297	-0.379358	-0.176569	-0.27294	0.554927	1.4253	0	0	-0.387545	-0.0676568	0.103221	0.3627	0.988161	0	0
3.78	-1.87632	1.43816	-2.94139	-0.0794301	0.291464	0.922214	-0.341799	-0.247658	0.0515223	0.09683	0.266916	0	0	0.516831	-0.185143	-0.0407274	0.216806	0.0580576	0	0	-0.0249366	-0.0253986	0.164936	-0.380923	-0.177757	-0.278631	0.555086	1.42266	0	0	-0.391428	-0.0645307	0.0986512	0.361313	0.997459	0	0
3.79	-1.86713	1.44301	-2.96209	-0.0833178	0.302148	0.919109	-0.34731	-0.252978	0.0556496	0.0993632	0.271062	0	0	0.508838	-0.189776	-0.0482068	0.213949	0.0609978	0	0	-0.0202514	-0.0231102	0.162774	-0.381816	-0.17885	-0.284692	0.554442	1.4199	0	0	-0.394853	-0.061939	0.0974045	0.360334	1.00816	0	0
3.8	-1.84465	1.44819	-2.9957	-0.0874333	0.312714	0.915947	-0.348999	-0.258744	0.0595677	0.105335	0.275596	0	0	0.504011	-0.193786	-0.052162	0.215635	0.0654381	0	0	-0.0149226	-0.020948	0.159885	-0.382003	-0.179995	-0.290706	0.554064	1.41829	0	0	-0.397246	-0.0596108	0.0939673	0.359891	1.01431	0	0
3.81	-1.80394	1.45384	-3.04762	-0.0917093	0.32331	0.912717	-0.345991	-0.264643	0.063982	0.115548	0.280686	0	0	0.502328	-0.1977	-0.0527583	0.221202	0.0700113	0	0	-0.00788808	-0.0185527	0.156935	-0.382128	-0.181921	-0.293136	0.553139	1.41584	0	0	-0.398888	-0.0577448	0.0907327	0.359117	1.01544	0	0
3.82	-1.75166	1.46008	-3.11052	-0.0961607	0.33402	0.909507	-0.34325	-0.269967	0.0692933	0.123645	0.283468	0	0	0.502635	-0.201681	-0.0499191	0.229905	0.0735512	0	0	-0.000275749	-0.0153828	0.153291	-0.381959	-0.184332	-0.293798	0.550774	1.41005	0	0	-0.400239	-0.0566697	0.0897964	0.358844	1.01461	0	0
3.83	-1.67547	1.46666	3.08724	-0.100947	0.344965	0.906199	-0.338558	-0.274459	0.0745269	0.132569	0.285149	0	0	0.506758	-0.205266	-0.0437707	0.2429	0.0769805	0	0	0.00927762	-0.0113644	0.14803	-0.381736	-0.187011	-0.294275	0.547299	1.40291	0	0	-0.4021	-0.0561519	0.0908686	0.359455	1.0121	0	0
3.84	-1.57425	1.47315	2.97763	-0.106025	0.356126	0.902843	-0.333368	-0.278202	0.0795444	0.140068	0.28456	0	0	0.513719	-0.208699	-0.0361364	0.259368	0.0813597	0	0	0.0200224	-0.00638362	0.141867	-0.382681	-0.19021	-0.292118	0.547116	1.39966	0	0	-0.403547	-0.0558703	0.0933522	0.359546	1.00905	0	0
3.85	-1.44777	1.47876	2.84312	-0.111306	0.367446	0.899485	-0.327355	-0.2815	0.0838834	0.146898	0.281903	0	0	0.522549	-0.212123	-0.0286142	0.278657	0.0884015	0	0	0.0313951	-0.000692466	0.135235	-0.384162	-0.1938	-0.289507	0.54808	1.40274	0	0	-0.404488	-0.0559167	0.0972331	0.359533	1.00546	0	0
3.86	-1.33928	1.48769	2.73028	-0.117142	0.379656	0.897595	-0.324142	-0.280747	0.0837845	0.158505	0.273641	0	0	0.523739	-0.215627	-0.0162523	0.293561	0.096319	0	0	0.0358985	0.00743466	0.135351	-0.294479	-0.200753	-0.855392	0.335029	0.193893	0	0	-0.399281	-0.0610937	0.125956	0.358588	0.982969	0	0
3.87	-1.1765	1.49149	2.56084	-0.123015	0.391258	0.894194	-0.320088	-0.282476	0.0871853	0.162736	0.267402	0	0	0.531493	-0.21896	-0.00530798	0.312049	0.105894	0	0	0.0423739	0.017784	0.134323	-0.213366	-0.312421	-1.52131	0	0.216958	0	0	-0.39598	-0.0648455	0.148207	0.363026	0.969917	0	0
3.88	-1.01338	1.48895	2.38846	-0.12897	0.40281	0.891067	-0.306024	-0.291209	0.0983048	0.193389	0.306629	0	0	0.538613	-0.220744	-0.00152416	0.321274	0.0894697	0	0	0.0596669	0.0209735	0.116545	-0.365019	-0.201541	-0.354481	0.479664	1.4798	0	0	-0.402778	-0.0631068	0.146877	0.365755	0.962643	0	0
